<mxfile host="app.diagrams.net" modified="2023-12-18T08:06:11.049Z" agent="Mozilla/5.0 (Macintosh; Intel Mac OS X 10_15_7) AppleWebKit/537.36 (KHTML, like Gecko) Chrome/120.0.0.0 Safari/537.36" version="22.1.11" etag="iM9Evw-ZUuPhDTj7Jf0L" type="github">
  <diagram name="第 1 页" id="gkJH9spfl-EzDToW0fA7">
    <mxGraphModel>
      <root>
        <mxCell id="0" />
        <mxCell id="1" parent="0" />
      </root>
    </mxGraphModel>
  </diagram>
</mxfile>
